<?xml version="1.0" standalone="no"?><!DOCTYPE svg PUBLIC "-//W3C//DTD SVG 1.1//EN" "http://www.w3.org/Graphics/SVG/1.1/DTD/svg11.dtd"><svg t="1758770270596" class="icon" viewBox="0 0 1126 1024" version="1.1" xmlns="http://www.w3.org/2000/svg" p-id="14171" data-spm-anchor-id="a313x.search_index.0.i1.1c833a81H7IxvM" xmlns:xlink="http://www.w3.org/1999/xlink" width="219.921875" height="200"><path d="M841.386667 278.186667L395.946667 464.213333c-3.413333 1.706667-5.12 3.413333-6.826667 6.826667 0 3.413333 0 6.826667 1.706667 8.533333l256 281.6c1.706667 1.706667 3.413333 1.706667 6.826666 1.706667 1.706667 0 3.413333-1.706667 5.12-3.413333l191.146667-472.746667c1.706667-1.706667 0-5.12-1.706667-6.826667-1.706667-1.706667-3.413333-1.706667-6.826666-1.706666zM372.053333 535.893333c-1.706667-1.706667-5.12-3.413333-8.533333-1.706666s-5.12 3.413333-3.413333 6.826666l8.533333 141.653334c0 3.413333 1.706667 5.12 5.12 5.12 1.706667 1.706667 5.12 0 6.826667-1.706667l56.32-56.32c5.12-5.12 5.12-13.653333 0-18.773333l-64.853334-75.093334zM750.933333 262.826667c0-1.706667-1.706667-3.413333-3.413333-1.706667l-469.333333 78.506667c-1.706667 0-5.12 1.706667-5.12 5.12 0 1.706667 0 5.12 1.706666 6.826666l58.026667 68.266667c3.413333 5.12 10.24 5.12 15.36 3.413333l401.066667-155.306666c1.706667-1.706667 1.706667-3.413333 1.706666-5.12z" fill="#3364AE" p-id="14172" data-spm-anchor-id="a313x.search_index.0.i3.1c833a81H7IxvM" class="selected"></path><path d="M742.4 0h-358.4C199.68 0 51.2 148.48 51.2 332.8v358.4C51.2 875.52 199.68 1024 384 1024h358.4C926.72 1024 1075.2 875.52 1075.2 691.2v-358.4C1075.2 148.48 926.72 0 742.4 0z m157.013333 300.373333L713.386667 779.946667c-15.36 34.133333-56.32 47.786667-90.453334 32.426666-6.826667-3.413333-15.36-8.533333-20.48-15.36l-122.88-134.826666s-35.84 32.426667-102.4 93.866666c-11.946667 6.826667-27.306667 3.413333-29.013333 3.413334-18.773333-1.706667-30.72-18.773333-27.306667-37.546667L307.2 476.16l-68.266667-81.92c-25.6-27.306667-23.893333-69.973333 3.413334-93.866667 10.24-10.24 23.893333-15.36 37.546666-17.066666l551.253334-75.093334c37.546667-5.12 69.973333 22.186667 75.093333 58.026667 1.706667 10.24-1.706667 23.893333-6.826667 34.133333z" fill="#3364AE" p-id="14173" data-spm-anchor-id="a313x.search_index.0.i2.1c833a81H7IxvM" class="selected"></path></svg>